<svg xmlns="http://www.w3.org/2000/svg" viewBox="0 0 794 1122" width="794" height="1122" role="img" aria-label="Veriworkly Special resume template preview">
  <rect width="794" height="1122" fill="#ffffff"/>

  <rect x="72" y="90" width="300" height="30" rx="4" fill="#0f172a"/>
  <rect x="72" y="132" width="360" height="10" rx="3" fill="#2563eb"/>
  <g fill="#94a3b8">
    <rect x="72" y="158" width="140" height="9" rx="3"/>
    <rect x="224" y="158" width="120" height="9" rx="3"/>
    <rect x="356" y="158" width="104" height="9" rx="3"/>
  </g>
  <rect x="72" y="192" width="650" height="2" fill="#2563eb"/>

  <g fill="#2563eb">
    <rect x="72" y="228" width="6" height="6"/>
    <rect x="72" y="384" width="6" height="6"/>
    <rect x="72" y="700" width="6" height="6"/>
    <rect x="72" y="876" width="6" height="6"/>
  </g>
  <g fill="#0f172a">
    <rect x="88" y="226" width="88" height="9" rx="3"/>
    <rect x="88" y="382" width="108" height="9" rx="3"/>
    <rect x="88" y="698" width="96" height="9" rx="3"/>
    <rect x="88" y="874" width="70" height="9" rx="3"/>
  </g>

  <g fill="#cbd5e1">
    <rect x="72" y="256" width="650" height="9" rx="3"/>
    <rect x="72" y="276" width="606" height="9" rx="3"/>
    <rect x="72" y="296" width="440" height="9" rx="3"/>
  </g>

  <g>
    <rect x="72" y="330" width="262" height="13" rx="3" fill="#0f172a"/>
    <rect x="600" y="332" width="122" height="9" rx="3" fill="#94a3b8"/>
    <rect x="72" y="354" width="196" height="9" rx="3" fill="#94a3b8"/>
    <rect x="90" y="422" width="632" height="9" rx="3" fill="#cbd5e1"/>
    <rect x="90" y="442" width="588" height="9" rx="3" fill="#cbd5e1"/>
    <rect x="90" y="462" width="512" height="9" rx="3" fill="#cbd5e1"/>

    <rect x="72" y="500" width="238" height="13" rx="3" fill="#0f172a"/>
    <rect x="608" y="502" width="114" height="9" rx="3" fill="#94a3b8"/>
    <rect x="72" y="524" width="172" height="9" rx="3" fill="#94a3b8"/>
    <rect x="90" y="560" width="632" height="9" rx="3" fill="#cbd5e1"/>
    <rect x="90" y="580" width="546" height="9" rx="3" fill="#cbd5e1"/>

    <rect x="72" y="740" width="276" height="13" rx="3" fill="#0f172a"/>
    <rect x="604" y="742" width="118" height="9" rx="3" fill="#94a3b8"/>
    <rect x="72" y="764" width="204" height="9" rx="3" fill="#94a3b8"/>
    <rect x="90" y="800" width="618" height="9" rx="3" fill="#cbd5e1"/>
    <rect x="90" y="820" width="498" height="9" rx="3" fill="#cbd5e1"/>

    <rect x="72" y="918" width="650" height="9" rx="3" fill="#cbd5e1"/>
    <rect x="72" y="938" width="574" height="9" rx="3" fill="#cbd5e1"/>
  </g>
</svg>
